<?xml version="1.0" standalone="no"?><!DOCTYPE svg PUBLIC "-//W3C//DTD SVG 1.1//EN" "http://www.w3.org/Graphics/SVG/1.1/DTD/svg11.dtd"><svg t="1682865147826" class="icon" viewBox="0 0 1024 1024" version="1.1" xmlns="http://www.w3.org/2000/svg" p-id="13962" xmlns:xlink="http://www.w3.org/1999/xlink" width="32" height="32"><path d="M278.912 398.656A42.666667 42.666667 0 0 1 256 405.333333H149.376A21.333333 21.333333 0 0 0 128 426.730667v170.538666C128 609.109333 137.557333 618.666667 149.376 618.666667H256a42.666667 42.666667 0 0 1 22.912 6.677333L448 732.949333V291.050667l-169.088 107.605333zM149.376 704A106.688 106.688 0 0 1 42.666667 597.269333v-170.538666A106.666667 106.666667 0 0 1 149.376 320h94.208l224.170667-142.656C496.170667 159.253333 533.333333 179.669333 533.333333 213.333333v597.333334c0 33.664-37.162667 54.08-65.578666 35.989333L243.584 704H149.376z m690.944 137.344a42.666667 42.666667 0 1 1-59.306667-61.354667c153.322667-148.181333 153.322667-387.797333 0-535.978666a42.666667 42.666667 0 1 1 59.306667-61.354667c188.010667 181.717333 188.010667 476.970667 0 658.688z m-128.32-127.701333a42.666667 42.666667 0 0 1-58.666667-61.952c81.770667-77.44 81.770667-201.941333 0-279.381334a42.666667 42.666667 0 0 1 58.666667-61.952c117.333333 111.082667 117.333333 292.202667 0 403.285334z" fill="#e6e6e6" p-id="13963"></path></svg>